Coordinates
version=1
nRows=6
nColumns=46
inDegrees=yes

Units are S.I. units (second, meters, Newtons, ...)
Angles are in degrees.

endheader
time	pelvis_tilt	pelvis_list	pelvis_rotation	pelvis_tx	pelvis_ty	pelvis_tz	bb_angle	bb_tx	bb_ty	bb_tz	hip_flexion_r	hip_adduction_r	hip_rotation_r	knee_angle_r	knee_angle_r_beta	ankle_angle_r	subtalar_angle_r	mtp_angle_r	crank_angle_r	hip_flexion_l	hip_adduction_l	hip_rotation_l	knee_angle_l	knee_angle_l_beta	ankle_angle_l	subtalar_angle_l	mtp_angle_l	crank_angle_l	lumbar_extension	lumbar_bending	lumbar_rotation	arm_flex_r	arm_add_r	arm_rot_r	elbow_flex_r	pro_sup_r	wrist_flex_r	wrist_dev_r	arm_flex_l	arm_add_l	arm_rot_l	elbow_flex_l	pro_sup_l	wrist_flex_l	wrist_dev_l
      0.00000000	    -29.68914419	      3.65748922	      4.11188004	      0.19148720	      1.03610371	     -0.23845719	      0.00000000	      0.50000000	      0.00000000	      0.25000000	     64.83669541	     -6.83918925	      7.18116179	     85.44832117	      1.49135454	     16.03387127	     -9.91441036	      0.00000000	      0.00000000	     83.94040862	     -2.06934922	     -3.73650218	     65.15811489	      1.13722364	     -2.88302863	     -6.20418047	      0.00000000	      0.00000000	    -89.92480628	     13.78373636	     89.48725936	     61.28625493	     89.87194013	     45.59126871	     84.62474967	     36.00910556	      0.00000000	      0.00000000	     82.00291113	     28.90726391	      0.35793298	     67.11914731	     44.09895644	      0.00000000	      0.00000000
      0.00500000	    -29.68042878	      3.66914590	      4.17367977	      0.19149844	      1.03612459	     -0.23860252	      0.00000000	      0.50000000	      0.00000000	      0.25000000	     64.82890596	     -6.93076688	      7.16458657	     85.47566032	      1.49183170	     16.13877671	     -9.71907304	      0.00000000	      0.00000000	     83.92572404	     -1.98981455	     -3.75761448	     65.12859739	      1.13670846	     -3.03110326	     -6.44409249	      0.00000000	      0.00000000	    -89.92475708	     13.87730737	     89.48700284	     67.73408779	     89.87301758	     38.77648764	     84.10188017	     39.45610971	      0.00000000	      0.00000000	     81.98714603	     28.96262739	      0.36847723	     67.16289188	     42.83933339	      0.00000000	      0.00000000
      0.01000000	    -29.72613421	      3.65879829	      4.15916793	      0.19160448	      1.03614389	     -0.23853370	      0.00000000	      0.50000000	      0.00000000	      0.25000000	     64.85696691	     -6.90528503	      7.15596387	     85.44388713	      1.49127716	     16.07525966	     -9.76361072	      0.00000000	      0.00000000	     83.94994065	     -2.01668796	     -3.74178832	     65.10621434	      1.13631780	     -2.96269200	     -6.33164840	      0.00000000	      0.00000000	    -89.92474115	     13.85127339	     89.48712587	     66.59726310	     89.87300764	     39.81918447	     83.61702405	     41.66119761	      0.00000000	      0.00000000	     81.92403982	     28.86163646	      0.53093558	     67.23533533	     42.49688072	      0.00000000	      0.00000000
      0.01500000	    -29.70288847	      3.67659859	      4.14775295	      0.19157975	      1.03594653	     -0.23862183	      0.00000000	      0.50000000	      0.00000000	      0.25000000	     64.92308237	     -6.95693643	      7.17726525	     85.54968240	      1.49312363	     16.05705672	     -9.59146449	      0.00000000	      0.00000000	     83.96193810	     -2.03112770	     -3.76386819	     65.19014724	      1.13778271	     -2.88393254	     -6.24619119	      0.00000000	      0.00000000	    -89.92470405	     13.83884708	     89.47988183	     66.06724857	     89.87326238	     40.32832757	     83.65904230	     41.33825703	      0.00000000	      0.00000000	     81.86986261	     28.85868048	      0.64821893	     67.51813675	     42.62764705	      0.00000000	      0.00000000
      0.02000000	    -29.73072676	      3.68013247	      4.15247985	      0.19153645	      1.03616767	     -0.23874689	      0.00000000	      0.50000000	      0.00000000	      0.25000000	     64.94109127	     -6.97821326	      7.18089905	     85.51828993	      1.49257573	     16.06318965	     -9.59280808	      0.00000000	      0.00000000	     83.97265343	     -1.99706772	     -3.72061894	     65.17233927	      1.13747190	     -2.88247584	     -6.30966005	      0.00000000	      0.00000000	    -89.92463825	     13.87388035	     89.48254907	     66.43469891	     89.87296289	     39.97738877	     83.71146623	     40.90924973	      0.00000000	      0.00000000	     81.89196463	     28.91505809	      0.44868407	     67.27275092	     42.62923208	      0.00000000	      0.00000000
      0.02500000	    -29.75516915	      3.67152237	      4.12968721	      0.19159555	      1.03619476	     -0.23864161	      0.00000000	      0.50000000	      0.00000000	      0.25000000	     64.95299339	     -6.94044417	      7.18814677	     85.49985584	      1.49225399	     16.06745865	     -9.61057694	      0.00000000	      0.00000000	     83.99668070	     -2.03957418	     -3.74689874	     65.17708204	      1.13755468	     -2.87285548	     -6.32581028	      0.00000000	      0.00000000	    -89.92462075	     13.81035985	     89.47781158	     66.58842744	     89.87306636	     39.88600561	     83.68939102	     40.95672582	      0.00000000	      0.00000000	     81.79109924	     28.83279484	      0.65656827	     67.57685761	     42.83158333	      0.00000000	      0.00000000
